<svg xmlns="http://www.w3.org/2000/svg" width="224.88" viewBox="0 0 224.88 150" height="150" version="1.0"><defs><clipPath id="a"><path d="M 0 0.0390625 L 224.761719 0.0390625 L 224.761719 149.960938 L 0 149.960938 Z M 0 0.0390625"/></clipPath><clipPath id="b"><path d="M 0 66 L 224.761719 66 L 224.761719 100 L 0 100 Z M 0 66"/></clipPath></defs><g clip-path="url(#a)"><path fill="#FFF" d="M 0 0.0390625 L 224.878906 0.0390625 L 224.878906 157.457031 L 0 157.457031 Z M 0 0.0390625"/><path fill="#FFF" d="M 0 0.0390625 L 224.878906 0.0390625 L 224.878906 149.960938 L 0 149.960938 Z M 0 0.0390625"/><path fill="#0A0B10" d="M 0 0.0390625 L 224.878906 0.0390625 L 224.878906 149.960938 L 0 149.960938 Z M 0 0.0390625"/></g><g fill="#FDFDFD"><g><g><path d="M 48.703125 1.890625 C 40.648438 1.890625 33.820312 0.695312 28.21875 -1.6875 C 22.625 -4.082031 18.410156 -7.226562 15.578125 -11.125 C 12.742188 -15.03125 11.328125 -19.3125 11.328125 -23.96875 C 11.328125 -31.019531 14.535156 -34.546875 20.953125 -34.546875 C 21.078125 -11.515625 30.578125 0 49.453125 0 C 58.265625 0 65.0625 -2.546875 69.84375 -7.640625 C 74.625 -12.742188 77.015625 -20.078125 77.015625 -29.640625 C 77.015625 -35.046875 75.972656 -39.570312 73.890625 -43.21875 C 71.816406 -46.875 68.546875 -50.273438 64.078125 -53.421875 C 59.617188 -56.566406 53.738281 -59.960938 46.4375 -63.609375 C 40.394531 -66.753906 34.984375 -69.960938 30.203125 -73.234375 C 25.421875 -76.515625 21.644531 -80.546875 18.875 -85.328125 C 16.101562 -90.109375 14.71875 -96.207031 14.71875 -103.625 C 14.71875 -113.695312 17.988281 -121.722656 24.53125 -127.703125 C 31.082031 -133.679688 39.957031 -136.671875 51.15625 -136.671875 C 57.820312 -136.671875 63.671875 -135.691406 68.703125 -133.734375 C 73.742188 -131.785156 77.675781 -129.207031 80.5 -126 C 83.332031 -122.789062 84.75 -119.234375 84.75 -115.328125 C 84.75 -112.316406 83.835938 -109.957031 82.015625 -108.25 C 80.191406 -106.550781 77.644531 -105.703125 74.375 -105.703125 C 74.375 -115.773438 72.484375 -123.140625 68.703125 -127.796875 C 64.929688 -132.453125 59.019531 -134.78125 50.96875 -134.78125 C 42.914062 -134.78125 36.6875 -132.328125 32.28125 -127.421875 C 27.875 -122.515625 25.671875 -115.65625 25.671875 -106.84375 C 25.671875 -101.050781 26.707031 -96.296875 28.78125 -92.578125 C 30.863281 -88.867188 34.007812 -85.628906 38.21875 -82.859375 C 42.4375 -80.097656 47.628906 -77.144531 53.796875 -74 C 59.835938 -70.851562 65.46875 -67.644531 70.6875 -64.375 C 75.914062 -61.101562 80.164062 -57.070312 83.4375 -52.28125 C 86.707031 -47.5 88.34375 -41.332031 88.34375 -33.78125 C 88.34375 -23.09375 84.910156 -14.472656 78.046875 -7.921875 C 71.191406 -1.378906 61.410156 1.890625 48.703125 1.890625 Z M 48.703125 1.890625" transform="translate(-2.62 142.71)"/></g></g></g><g fill="#FDFDFD"><g><g><path d="M 48.703125 1.890625 C 40.648438 1.890625 33.820312 0.695312 28.21875 -1.6875 C 22.625 -4.082031 18.410156 -7.226562 15.578125 -11.125 C 12.742188 -15.03125 11.328125 -19.3125 11.328125 -23.96875 C 11.328125 -31.019531 14.535156 -34.546875 20.953125 -34.546875 C 21.078125 -11.515625 30.578125 0 49.453125 0 C 58.265625 0 65.0625 -2.546875 69.84375 -7.640625 C 74.625 -12.742188 77.015625 -20.078125 77.015625 -29.640625 C 77.015625 -35.046875 75.972656 -39.570312 73.890625 -43.21875 C 71.816406 -46.875 68.546875 -50.273438 64.078125 -53.421875 C 59.617188 -56.566406 53.738281 -59.960938 46.4375 -63.609375 C 40.394531 -66.753906 34.984375 -69.960938 30.203125 -73.234375 C 25.421875 -76.515625 21.644531 -80.546875 18.875 -85.328125 C 16.101562 -90.109375 14.71875 -96.207031 14.71875 -103.625 C 14.71875 -113.695312 17.988281 -121.722656 24.53125 -127.703125 C 31.082031 -133.679688 39.957031 -136.671875 51.15625 -136.671875 C 57.820312 -136.671875 63.671875 -135.691406 68.703125 -133.734375 C 73.742188 -131.785156 77.675781 -129.207031 80.5 -126 C 83.332031 -122.789062 84.75 -119.234375 84.75 -115.328125 C 84.75 -112.316406 83.835938 -109.957031 82.015625 -108.25 C 80.191406 -106.550781 77.644531 -105.703125 74.375 -105.703125 C 74.375 -115.773438 72.484375 -123.140625 68.703125 -127.796875 C 64.929688 -132.453125 59.019531 -134.78125 50.96875 -134.78125 C 42.914062 -134.78125 36.6875 -132.328125 32.28125 -127.421875 C 27.875 -122.515625 25.671875 -115.65625 25.671875 -106.84375 C 25.671875 -101.050781 26.707031 -96.296875 28.78125 -92.578125 C 30.863281 -88.867188 34.007812 -85.628906 38.21875 -82.859375 C 42.4375 -80.097656 47.628906 -77.144531 53.796875 -74 C 59.835938 -70.851562 65.46875 -67.644531 70.6875 -64.375 C 75.914062 -61.101562 80.164062 -57.070312 83.4375 -52.28125 C 86.707031 -47.5 88.34375 -41.332031 88.34375 -33.78125 C 88.34375 -23.09375 84.910156 -14.472656 78.046875 -7.921875 C 71.191406 -1.378906 61.410156 1.890625 48.703125 1.890625 Z M 48.703125 1.890625" transform="translate(95.349 142.71)"/></g></g></g><g clip-path="url(#b)"><path fill="#0A0B10" d="M -69.574219 66.988281 L 277.660156 66.988281 L 277.660156 99.117188 L -69.574219 99.117188 L -69.574219 66.988281"/></g><g fill="#FDFDFD"><g><g><path d="M -0.332031 0.445312 C 1.445312 0.445312 3.167969 -2.558594 2.835938 -4.726562 C 2.835938 -4.835938 2.890625 -4.949219 3 -4.835938 C 6.226562 -2.835938 10.507812 -2.613281 13.398438 -4.28125 C 13.507812 -4.335938 13.621094 -4.445312 13.621094 -4.558594 C 13.621094 -4.726562 13.453125 -4.835938 13.285156 -4.835938 L 13.121094 -4.835938 C 10.449219 -3.28125 6.558594 -3.503906 3.558594 -5.28125 C 3.445312 -5.335938 3.445312 -5.390625 3.558594 -5.449219 C 3.613281 -5.503906 3.722656 -5.503906 3.78125 -5.558594 C 3.945312 -5.558594 4.003906 -5.671875 4.003906 -5.835938 C 4.003906 -6.003906 3.890625 -6.171875 3.722656 -6.171875 C 3.667969 -6.171875 3.613281 -6.171875 3.613281 -6.113281 C 3.335938 -6.058594 3.058594 -5.949219 2.835938 -5.835938 C 2.722656 -5.78125 2.722656 -5.78125 2.613281 -5.835938 C 2.390625 -5.890625 2.167969 -5.726562 2.058594 -5.503906 C 2.058594 -5.449219 2 -5.449219 2 -5.390625 C 0.0546875 -4.226562 -1.390625 -2.390625 -1.390625 -0.832031 C -1.390625 -0.0546875 -1 0.445312 -0.332031 0.445312 Z M -0.332031 -0.167969 C -0.613281 -0.167969 -0.777344 -0.390625 -0.777344 -0.832031 C -0.777344 -2.113281 0.5 -3.722656 2.222656 -4.78125 C 2.5 -3 1 -0.167969 -0.332031 -0.167969 Z M -0.332031 -0.167969" transform="translate(27.364 85.05)"/></g></g></g><g fill="#FDFDFD"><g><g><path d="M 1.5 0.277344 C 4.503906 0.277344 9.507812 -1.613281 13.507812 -4.28125 C 13.621094 -4.335938 13.675781 -4.445312 13.675781 -4.558594 C 13.675781 -4.726562 13.507812 -4.835938 13.339844 -4.835938 C 13.285156 -4.835938 13.230469 -4.835938 13.175781 -4.78125 C 9.226562 -2.222656 4.390625 -0.390625 1.5 -0.390625 C 0.277344 -0.390625 -0.167969 -0.613281 -0.167969 -1.390625 L -0.167969 -1.835938 C 0.167969 -3.390625 2.390625 -5.503906 3.78125 -5.503906 C 4.003906 -5.503906 4.167969 -5.390625 4.167969 -5.226562 C 4.113281 -4.835938 3.667969 -4.28125 3.222656 -4.003906 C 3.167969 -3.945312 3.058594 -3.835938 3.058594 -3.722656 C 3.058594 -3.558594 3.222656 -3.390625 3.390625 -3.390625 C 3.445312 -3.390625 3.503906 -3.445312 3.558594 -3.445312 C 4.226562 -3.835938 4.78125 -4.667969 4.78125 -5.335938 C 4.78125 -5.835938 4.390625 -6.171875 3.78125 -6.171875 C 2.113281 -6.171875 -0.445312 -3.78125 -0.777344 -1.945312 C -0.832031 -1.722656 -0.832031 -1.554688 -0.832031 -1.390625 C -0.832031 -0.222656 -0.0546875 0.277344 1.5 0.277344 Z M 1.5 0.277344" transform="translate(39.37 85.05)"/></g></g></g><g fill="#FDFDFD"><g><g><path d="M 4.003906 -7.171875 C 4.113281 -7.171875 4.167969 -7.171875 4.226562 -7.28125 L 4.445312 -7.503906 C 4.613281 -7.78125 4.835938 -8.058594 4.949219 -8.171875 C 5.003906 -8.226562 5.003906 -8.339844 5.003906 -8.394531 C 5.003906 -8.5625 4.890625 -8.726562 4.726562 -8.726562 C 4.613281 -8.726562 4.503906 -8.671875 4.445312 -8.617188 C 4.335938 -8.449219 4.113281 -8.117188 3.945312 -7.894531 L 3.722656 -7.671875 C 3.667969 -7.617188 3.667969 -7.558594 3.667969 -7.449219 C 3.667969 -7.28125 3.835938 -7.171875 4.003906 -7.171875 Z M 0.445312 0.332031 C 2.335938 0.332031 8.171875 -2.390625 11.171875 -4.28125 C 11.230469 -4.335938 11.285156 -4.445312 11.285156 -4.558594 C 11.285156 -4.726562 11.171875 -4.835938 10.953125 -4.835938 L 10.785156 -4.835938 C 7.894531 -2.945312 2.167969 -0.332031 0.445312 -0.332031 C -0.167969 -0.332031 -0.445312 -0.554688 -0.445312 -1.113281 C -0.445312 -1.890625 0.890625 -3.78125 2.78125 -5.726562 C 2.835938 -5.78125 2.890625 -5.835938 2.890625 -5.949219 C 2.890625 -6.113281 2.722656 -6.226562 2.558594 -6.226562 C 2.445312 -6.226562 2.390625 -6.226562 2.335938 -6.171875 C 0.277344 -4.058594 -1.054688 -2.167969 -1.054688 -1.113281 C -1.054688 -0.222656 -0.5 0.332031 0.445312 0.332031 Z M 0.445312 0.332031" transform="translate(51.489 85.05)"/></g></g></g><g fill="#FDFDFD"><g><g><path d="M 7.503906 0.0546875 C 9.449219 0.0546875 14.566406 -2.058594 17.675781 -4.28125 C 17.734375 -4.335938 17.789062 -4.445312 17.789062 -4.558594 C 17.789062 -4.726562 17.675781 -4.835938 17.511719 -4.835938 C 17.398438 -4.835938 17.34375 -4.835938 17.289062 -4.78125 C 14.175781 -2.445312 9.226562 -0.613281 7.503906 -0.613281 C 6.558594 -0.613281 6.113281 -0.890625 6.113281 -1.613281 C 6.113281 -2.667969 7.003906 -4.003906 7.671875 -4.949219 C 8.058594 -5.503906 8.28125 -5.835938 8.28125 -6.058594 C 8.28125 -6.28125 8.117188 -6.449219 7.894531 -6.449219 C 7.617188 -6.449219 6.949219 -6.003906 5.78125 -5.113281 C 5.449219 -5.726562 5.058594 -5.949219 4.226562 -5.949219 C 2.335938 -5.949219 -2.667969 -2.835938 -2.667969 -0.945312 C -2.667969 -0.390625 -2.277344 -0.0546875 -1.667969 -0.0546875 C -0.109375 -0.0546875 3.335938 -2.613281 5.671875 -4.28125 C 6.113281 -4.613281 6.503906 -4.890625 6.78125 -5.058594 C 6.894531 -5.167969 7.058594 -5.113281 6.894531 -4.949219 C 6.226562 -3.945312 5.503906 -2.722656 5.503906 -1.613281 C 5.503906 -0.5 6.171875 0.0546875 7.503906 0.0546875 Z M -1.667969 -0.722656 C -1.945312 -0.722656 -2.058594 -0.777344 -2.058594 -0.945312 C -2.058594 -2.277344 2.335938 -5.335938 4.226562 -5.335938 C 4.835938 -5.335938 5.003906 -5.226562 5.226562 -4.78125 C 2.945312 -3.058594 -0.332031 -0.722656 -1.667969 -0.722656 Z M -1.667969 -0.722656" transform="translate(61.216 85.05)"/></g></g></g><g fill="#FDFDFD"><g><g><path d="M 0.332031 2.445312 C 2.5 2.445312 8.78125 -1 13.507812 -4.28125 C 13.5625 -4.335938 13.621094 -4.390625 13.621094 -4.503906 C 13.621094 -4.667969 13.507812 -4.835938 13.339844 -4.835938 C 13.230469 -4.835938 13.175781 -4.835938 13.121094 -4.78125 C 7.839844 -1.113281 2.113281 1.835938 0.332031 1.835938 C -0.613281 1.835938 -0.890625 1.613281 -0.890625 0.832031 C -0.890625 -0.277344 -0.167969 -2 1.113281 -4.003906 C 10.5625 -9.726562 27.074219 -24.179688 27.074219 -27.40625 C 27.074219 -28.128906 26.628906 -28.519531 25.847656 -28.519531 C 21.179688 -28.519531 -1.5 -5.726562 -1.5 0.832031 C -1.5 1.945312 -0.945312 2.445312 0.332031 2.445312 Z M 1.945312 -5.226562 C 8.058594 -14.230469 22.402344 -27.90625 25.847656 -27.90625 C 26.292969 -27.90625 26.460938 -27.738281 26.460938 -27.40625 C 26.460938 -24.738281 11.785156 -11.5625 1.945312 -5.226562 Z M 1.945312 -5.226562" transform="translate(77.448 85.05)"/></g></g></g><g fill="#FDFDFD"><g><g><path d="M -0.222656 2.667969 C 1.613281 2.667969 4.003906 0.722656 5.113281 -0.890625 L 5.28125 -1 C 6.726562 -1.445312 8.503906 -2 10.394531 -2.558594 C 12.285156 -3.113281 14.285156 -3.667969 15.953125 -4.226562 C 16.121094 -4.28125 16.175781 -4.390625 16.175781 -4.558594 C 16.175781 -4.726562 16.066406 -4.835938 15.898438 -4.835938 L 15.789062 -4.835938 C 14.121094 -4.28125 12.117188 -3.722656 10.230469 -3.167969 C 8.671875 -2.722656 7.117188 -2.222656 5.78125 -1.835938 C 5.726562 -1.777344 5.671875 -1.835938 5.671875 -1.945312 C 5.726562 -2.058594 5.726562 -2.167969 5.78125 -2.222656 C 5.78125 -2.78125 5.390625 -3 4.726562 -3 C 4.28125 -3 3.722656 -2.890625 3.113281 -2.78125 C 2.5 -2.667969 1.835938 -2.558594 1.335938 -2.558594 C 0.832031 -2.558594 0.667969 -2.667969 0.667969 -2.835938 C 0.667969 -4.113281 3.558594 -6.335938 5.226562 -6.335938 C 5.503906 -6.335938 5.558594 -6.226562 5.558594 -6.058594 C 5.558594 -5.671875 5.058594 -5.058594 4.667969 -4.835938 C 4.558594 -4.78125 4.503906 -4.667969 4.503906 -4.558594 C 4.503906 -4.335938 4.667969 -4.226562 4.835938 -4.226562 C 4.890625 -4.226562 4.949219 -4.226562 5.003906 -4.28125 C 5.503906 -4.558594 6.003906 -5.226562 6.171875 -5.890625 C 6.226562 -5.949219 6.226562 -6.058594 6.226562 -6.113281 C 6.226562 -6.613281 5.835938 -6.949219 5.226562 -6.949219 C 3.222656 -6.949219 0 -4.445312 0 -2.835938 C 0 -2.222656 0.5 -1.945312 1.335938 -1.945312 C 1.890625 -1.945312 2.558594 -2.058594 3.222656 -2.167969 C 3.667969 -2.222656 5.058594 -2.445312 5.113281 -2.277344 C 5.226562 -2.113281 5.003906 -1.835938 4.835938 -1.554688 C 4.835938 -1.5 4.78125 -1.5 4.726562 -1.5 C 2.5 -0.667969 -1.167969 0.890625 -1.167969 1.945312 C -1.167969 2.445312 -0.832031 2.667969 -0.222656 2.667969 Z M -0.222656 2 C -0.5 2 -0.554688 2 -0.554688 1.890625 C -0.554688 1.613281 1.390625 0.5 3.722656 -0.445312 C 3.890625 -0.445312 3.945312 -0.390625 3.835938 -0.277344 C 2.722656 0.890625 1.054688 2 -0.222656 2 Z M -0.222656 2" transform="translate(126.413 85.05)"/></g></g></g><g fill="#FDFDFD"><g><g><path d="M 7.503906 0.0546875 C 9.449219 0.0546875 14.566406 -2.058594 17.675781 -4.28125 C 17.734375 -4.335938 17.789062 -4.445312 17.789062 -4.558594 C 17.789062 -4.726562 17.675781 -4.835938 17.511719 -4.835938 C 17.398438 -4.835938 17.34375 -4.835938 17.289062 -4.78125 C 14.175781 -2.445312 9.226562 -0.613281 7.503906 -0.613281 C 6.558594 -0.613281 6.113281 -0.890625 6.113281 -1.613281 C 6.113281 -2.667969 7.003906 -4.003906 7.671875 -4.949219 C 8.058594 -5.503906 8.28125 -5.835938 8.28125 -6.058594 C 8.28125 -6.28125 8.117188 -6.449219 7.894531 -6.449219 C 7.617188 -6.449219 6.949219 -6.003906 5.78125 -5.113281 C 5.449219 -5.726562 5.058594 -5.949219 4.226562 -5.949219 C 2.335938 -5.949219 -2.667969 -2.835938 -2.667969 -0.945312 C -2.667969 -0.390625 -2.277344 -0.0546875 -1.667969 -0.0546875 C -0.109375 -0.0546875 3.335938 -2.613281 5.671875 -4.28125 C 6.113281 -4.613281 6.503906 -4.890625 6.78125 -5.058594 C 6.894531 -5.167969 7.058594 -5.113281 6.894531 -4.949219 C 6.226562 -3.945312 5.503906 -2.722656 5.503906 -1.613281 C 5.503906 -0.5 6.171875 0.0546875 7.503906 0.0546875 Z M -1.667969 -0.722656 C -1.945312 -0.722656 -2.058594 -0.777344 -2.058594 -0.945312 C -2.058594 -2.277344 2.335938 -5.335938 4.226562 -5.335938 C 4.835938 -5.335938 5.003906 -5.226562 5.226562 -4.78125 C 2.945312 -3.058594 -0.332031 -0.722656 -1.667969 -0.722656 Z M -1.667969 -0.722656" transform="translate(141.032 85.05)"/></g></g></g><g fill="#FDFDFD"><g><g><path d="M 6.558594 0 C 8.503906 0 13.898438 -2.390625 16.734375 -4.335938 C 16.789062 -4.390625 16.84375 -4.445312 16.84375 -4.558594 C 16.84375 -4.726562 16.734375 -4.890625 16.566406 -4.890625 C 16.453125 -4.890625 16.398438 -4.890625 16.34375 -4.835938 C 13.453125 -2.835938 8.28125 -0.613281 6.558594 -0.613281 C 5.558594 -0.613281 5.167969 -0.945312 5.167969 -1.667969 C 5.167969 -2.722656 6.394531 -4.113281 7.226562 -5.058594 C 7.839844 -5.78125 8.339844 -6.503906 7.558594 -6.503906 C 7.226562 -6.503906 6.503906 -5.890625 4.726562 -4.445312 C 1.890625 -2.167969 0.277344 -1.054688 -0.390625 -1.054688 C -0.5 -1.054688 -0.554688 -1.167969 -0.554688 -1.335938 C -0.554688 -2.058594 0.554688 -3.558594 2.445312 -5.226562 C 2.5 -5.28125 2.558594 -5.335938 2.558594 -5.449219 C 2.558594 -5.613281 2.390625 -5.78125 2.222656 -5.78125 C 2.113281 -5.78125 2.058594 -5.726562 2 -5.671875 C -0.0546875 -3.835938 -1.222656 -2.277344 -1.222656 -1.277344 C -1.222656 -0.777344 -0.890625 -0.445312 -0.390625 -0.445312 C 0.5 -0.445312 2.113281 -1.5 5.113281 -3.945312 C 5.78125 -4.445312 5.726562 -4.335938 5.335938 -3.78125 C 4.890625 -3.058594 4.558594 -2.335938 4.558594 -1.667969 C 4.558594 -0.554688 5.226562 0 6.558594 0 Z M 6.558594 0" transform="translate(157.264 85.05)"/></g></g></g><g fill="#FDFDFD"><g><g><path d="M 0.722656 6.003906 C 4.058594 6.003906 13.730469 -0.277344 19.289062 -4.28125 C 19.34375 -4.335938 19.402344 -4.445312 19.402344 -4.558594 C 19.402344 -4.726562 19.289062 -4.835938 19.066406 -4.835938 C 19.011719 -4.835938 18.957031 -4.835938 18.902344 -4.78125 C 13.398438 -0.777344 3.890625 5.335938 0.722656 5.335938 C 0.0546875 5.335938 -0.167969 5.113281 -0.167969 4.558594 C -0.167969 2.945312 2.667969 0.167969 5.390625 -2.5 C 7.78125 -4.890625 10.171875 -7.226562 10.171875 -8.5625 C 10.171875 -9.226562 9.394531 -9.671875 8.449219 -10.5625 C 10.5625 -12.839844 12.117188 -14.898438 12.117188 -15.675781 C 12.117188 -16.066406 11.894531 -16.34375 11.507812 -16.34375 C 9.785156 -16.34375 5.890625 -13.398438 5.890625 -12.007812 C 5.890625 -11.507812 6.449219 -11.117188 7.449219 -10.449219 C 5.613281 -8.503906 3.28125 -6.394531 1.054688 -4.78125 C 1 -4.726562 0.945312 -4.613281 0.945312 -4.558594 C 0.945312 -4.335938 1.054688 -4.226562 1.222656 -4.226562 C 1.335938 -4.226562 1.390625 -4.226562 1.445312 -4.28125 C 3.445312 -5.726562 5.949219 -7.949219 8.003906 -10.117188 C 9.117188 -9.339844 9.507812 -8.949219 9.507812 -8.5625 C 9.507812 -7.503906 7.335938 -5.335938 4.949219 -3 C 2.222656 -0.277344 -0.777344 2.667969 -0.777344 4.558594 C -0.777344 5.449219 -0.332031 6.003906 0.722656 6.003906 Z M 7.894531 -10.894531 C 6.894531 -11.5625 6.558594 -11.894531 6.558594 -12.007812 C 6.558594 -12.953125 9.726562 -15.34375 11.230469 -15.621094 C 11.394531 -15.675781 11.507812 -15.566406 11.453125 -15.398438 C 11.0625 -14.453125 9.0625 -12.117188 7.894531 -10.894531 Z M 7.894531 -10.894531" transform="translate(172.55 85.05)"/></g></g></g><g fill="#FDFDFD"><g><g><path d="M 6.558594 0 C 8.503906 0 13.898438 -2.390625 16.734375 -4.335938 C 16.789062 -4.390625 16.84375 -4.445312 16.84375 -4.558594 C 16.84375 -4.726562 16.734375 -4.890625 16.566406 -4.890625 C 16.453125 -4.890625 16.398438 -4.890625 16.34375 -4.835938 C 13.453125 -2.835938 8.28125 -0.613281 6.558594 -0.613281 C 5.558594 -0.613281 5.167969 -0.945312 5.167969 -1.667969 C 5.167969 -2.722656 6.394531 -4.113281 7.226562 -5.058594 C 7.839844 -5.78125 8.339844 -6.503906 7.558594 -6.503906 C 7.226562 -6.503906 6.503906 -5.890625 4.726562 -4.445312 C 1.890625 -2.167969 0.277344 -1.054688 -0.390625 -1.054688 C -0.5 -1.054688 -0.554688 -1.167969 -0.554688 -1.335938 C -0.554688 -2.058594 0.554688 -3.558594 2.445312 -5.226562 C 2.5 -5.28125 2.558594 -5.335938 2.558594 -5.449219 C 2.558594 -5.613281 2.390625 -5.78125 2.222656 -5.78125 C 2.113281 -5.78125 2.058594 -5.726562 2 -5.671875 C -0.0546875 -3.835938 -1.222656 -2.277344 -1.222656 -1.277344 C -1.222656 -0.777344 -0.890625 -0.445312 -0.390625 -0.445312 C 0.5 -0.445312 2.113281 -1.5 5.113281 -3.945312 C 5.78125 -4.445312 5.726562 -4.335938 5.335938 -3.78125 C 4.890625 -3.058594 4.558594 -2.335938 4.558594 -1.667969 C 4.558594 -0.554688 5.226562 0 6.558594 0 Z M 6.558594 0" transform="translate(190.393 85.05)"/></g></g></g><g fill="#FDFDFD"><g><g><path d="M -0.222656 2.667969 C 1.613281 2.667969 4.003906 0.722656 5.113281 -0.890625 L 5.28125 -1 C 6.726562 -1.445312 8.503906 -2 10.394531 -2.558594 C 12.285156 -3.113281 14.285156 -3.667969 15.953125 -4.226562 C 16.121094 -4.28125 16.175781 -4.390625 16.175781 -4.558594 C 16.175781 -4.726562 16.066406 -4.835938 15.898438 -4.835938 L 15.789062 -4.835938 C 14.121094 -4.28125 12.117188 -3.722656 10.230469 -3.167969 C 8.671875 -2.722656 7.117188 -2.222656 5.78125 -1.835938 C 5.726562 -1.777344 5.671875 -1.835938 5.671875 -1.945312 C 5.726562 -2.058594 5.726562 -2.167969 5.78125 -2.222656 C 5.78125 -2.78125 5.390625 -3 4.726562 -3 C 4.28125 -3 3.722656 -2.890625 3.113281 -2.78125 C 2.5 -2.667969 1.835938 -2.558594 1.335938 -2.558594 C 0.832031 -2.558594 0.667969 -2.667969 0.667969 -2.835938 C 0.667969 -4.113281 3.558594 -6.335938 5.226562 -6.335938 C 5.503906 -6.335938 5.558594 -6.226562 5.558594 -6.058594 C 5.558594 -5.671875 5.058594 -5.058594 4.667969 -4.835938 C 4.558594 -4.78125 4.503906 -4.667969 4.503906 -4.558594 C 4.503906 -4.335938 4.667969 -4.226562 4.835938 -4.226562 C 4.890625 -4.226562 4.949219 -4.226562 5.003906 -4.28125 C 5.503906 -4.558594 6.003906 -5.226562 6.171875 -5.890625 C 6.226562 -5.949219 6.226562 -6.058594 6.226562 -6.113281 C 6.226562 -6.613281 5.835938 -6.949219 5.226562 -6.949219 C 3.222656 -6.949219 0 -4.445312 0 -2.835938 C 0 -2.222656 0.5 -1.945312 1.335938 -1.945312 C 1.890625 -1.945312 2.558594 -2.058594 3.222656 -2.167969 C 3.667969 -2.222656 5.058594 -2.445312 5.113281 -2.277344 C 5.226562 -2.113281 5.003906 -1.835938 4.835938 -1.554688 C 4.835938 -1.5 4.78125 -1.5 4.726562 -1.5 C 2.5 -0.667969 -1.167969 0.890625 -1.167969 1.945312 C -1.167969 2.445312 -0.832031 2.667969 -0.222656 2.667969 Z M -0.222656 2 C -0.5 2 -0.554688 2 -0.554688 1.890625 C -0.554688 1.613281 1.390625 0.5 3.722656 -0.445312 C 3.890625 -0.445312 3.945312 -0.390625 3.835938 -0.277344 C 2.722656 0.890625 1.054688 2 -0.222656 2 Z M -0.222656 2" transform="translate(205.68 85.05)"/></g></g></g></svg>